<?xml version="1.0" encoding="utf-8"?>
<!-- Generator: Adobe Illustrator 19.0.0, SVG Export Plug-In . SVG Version: 6.00 Build 0)  -->
<svg version="1.1" id="Layer_1" xmlns="http://www.w3.org/2000/svg" xmlns:xlink="http://www.w3.org/1999/xlink" x="0px" y="0px"
	 viewBox="-257 378.9 81 85" style="enable-background:new -257 378.9 81 85;" xml:space="preserve">
<style type="text/css">
	.st0{fill:none;stroke:#FFFFFF;stroke-width:1.5;stroke-linecap:round;stroke-linejoin:round;}
	.st1{fill:#FFFFFF;}
	.st2{fill:none;stroke:#F2F2F2;stroke-width:1.95;}
	.st3{fill:none;stroke:#F2F2F2;stroke-width:1.3;}
</style>
<g>
	<path class="st0" d="M-256,423.3c0,21.8,17.7,39.6,39.5,39.6s39.5-17.7,39.5-39.6c0-21.8-17.7-39.6-39.5-39.6S-256,401.5-256,423.3
		z"/>
	<path class="st0" d="M-192.5,453.8c-4.5-2.1-9-4.1-13.7-5.9v-10.7c0,0,5.5-1.9,5.5-13.4c3.8,0,5.5-10.7,0.2-10.7
		c0-1.1,4.2-7,2.6-13.4c-2.7-10.7-30.1-10.7-32.8,0c-11.5-2.3-2.7,11.9-2.7,13.4c-5.5,0-3.8,10.7,0,10.7c0,11.5,5.5,13.4,5.5,13.4
		v10.7c-4.6,1.8-9.2,3.8-13.7,5.9"/>
	<g transform="rotate(-90 14.56 73.234)">
		<g>
			
				<ellipse id="a" transform="matrix(-2.535182e-006 -1 1 -2.535182e-006 -181.5659 -549.0975)" class="st1" cx="-365.3" cy="-183.8" rx="4.5" ry="4.5"/>
		</g>
		
			<ellipse transform="matrix(-2.535182e-006 -1 1 -2.535182e-006 -181.5659 -549.0975)" class="st2" cx="-365.3" cy="-183.8" rx="3.5" ry="3.5"/>
		<g>
			
				<ellipse id="a_1_" transform="matrix(-2.535182e-006 -1 1 -2.535182e-006 -181.5659 -549.0975)" class="st3" cx="-365.3" cy="-183.8" rx="4.5" ry="4.5"/>
		</g>
	</g>
	<g transform="rotate(-90 65.068 74.531)">
		<g>
			
				<ellipse id="b" transform="matrix(-2.535182e-006 -1 1 -2.535182e-006 -132.3538 -497.2915)" class="st1" cx="-314.8" cy="-182.5" rx="4.5" ry="4.5"/>
		</g>
		
			<ellipse transform="matrix(-2.535182e-006 -1 1 -2.535182e-006 -132.3538 -497.2915)" class="st2" cx="-314.8" cy="-182.5" rx="3.5" ry="3.5"/>
		<g>
			
				<ellipse id="b_1_" transform="matrix(-2.535182e-006 -1 1 -2.535182e-006 -132.3538 -497.2915)" class="st3" cx="-314.8" cy="-182.5" rx="4.5" ry="4.5"/>
		</g>
	</g>
	<g transform="rotate(-90 41.756 4.5)">
		<g>
			
				<ellipse id="c" transform="matrix(-2.535182e-006 -1 1 -2.535182e-006 -85.6349 -590.6346)" class="st1" cx="-338.1" cy="-252.5" rx="4.5" ry="4.5"/>
		</g>
		
			<ellipse transform="matrix(-2.535182e-006 -1 1 -2.535182e-006 -85.6349 -590.6346)" class="st2" cx="-338.1" cy="-252.5" rx="3.5" ry="3.5"/>
		<g>
			
				<ellipse id="c_1_" transform="matrix(-2.535182e-006 -1 1 -2.535182e-006 -85.6349 -590.6346)" class="st3" cx="-338.1" cy="-252.5" rx="4.5" ry="4.5"/>
		</g>
	</g>
</g>
</svg>
