<?xml version="1.0" encoding="utf-8"?>
<!-- Generator: Adobe Illustrator 19.0.0, SVG Export Plug-In . SVG Version: 6.00 Build 0)  -->
<svg version="1.1" id="Layer_1" xmlns="http://www.w3.org/2000/svg" xmlns:xlink="http://www.w3.org/1999/xlink" x="0px" y="0px"
	 viewBox="-177.4 357.9 162.9 120" style="enable-background:new -177.4 357.9 162.9 120;" xml:space="preserve">
<style type="text/css">
	.st0{fill:#FFFFFF;}
</style>
<path class="st0" d="M-149.6,389.8c-0.6,0-1.1-0.5-1.1-1.1l0,0v-9.6c0-5.2,4.2-9.5,9.5-9.5H-55c5.2,0,9.5,4.2,9.5,9.5v5.4
	c0,0.6-0.5,1.1-1.1,1.1c-0.6,0-1.1-0.5-1.1-1.1c0,0,0,0,0,0v-5.4c0-4.1-3.3-7.4-7.4-7.4h-86.2c-4.1,0-7.4,3.3-7.4,7.4v9.6
	C-148.5,389.3-149,389.8-149.6,389.8C-149.6,389.8-149.6,389.8-149.6,389.8L-149.6,389.8z"/>
<path class="st0" d="M-119.3,390h-15.2v-20.4h15.2V390z M-132.4,387.9h11v-16.2h-11V387.9z"/>
<path class="st0" d="M-59.4,390h-15.2v-20.4h15.2V390z M-72.5,387.9h11v-16.2h-11L-72.5,387.9z M-83.5,371.7h-29.2v-7.7
	c0-3.4,2.8-6.2,6.1-6.2h16.9c3.4,0,6.1,2.8,6.2,6.1V371.7z M-110.6,369.6h25v-5.6c0-2.2-1.8-4-4-4h-17c-2.2,0-4,1.8-4,4
	L-110.6,369.6z"/>
<path class="st0" d="M-91.7,389.8h-13.4v-7.4c0-1.7,1.4-3.1,3.2-3.1h7.1c1.7,0,3.2,1.4,3.2,3.2L-91.7,389.8z M-103,387.6h9.2v-5.3
	c0-0.6-0.4-1-1-1h-7.1c-0.6,0-1,0.4-1,1L-103,387.6z M-98.1,380.6c-0.6,0-1.1-0.5-1.1-1.1v-7.7c0-0.6,0.5-1.1,1.1-1.1
	c0.6,0,1.1,0.5,1.1,1.1v7.7C-97,380.2-97.5,380.6-98.1,380.6C-98.1,380.6-98.1,380.6-98.1,380.6z"/>
<path class="st0" d="M-32,477.9h-34.5c-0.6,0-1.1-0.5-1.1-1.1c0-0.6,0.5-1.1,1.1-1.1h32.4v-83.6c0-1.2-0.9-2.1-2.1-2.1l0,0h-30.3
	c-0.6,0-1.1-0.5-1.1-1.1c0-0.6,0.5-1.1,1.1-1.1h30.3c2.3,0,4.2,1.9,4.2,4.2c0,0,0,0,0,0V477.9z M-65.4,477.9h-94.8v-48.1
	c0-0.6,0.5-1.1,1.1-1.1s1.1,0.5,1.1,1.1v45.9h90.6v-75.9c0-0.6,0.5-1.1,1.1-1.1c0.6,0,1.1,0.5,1.1,1.1c0,0,0,0,0,0V477.9z
	 M-127.6,463.3h-19.5c-0.6,0-1.1-0.5-1.1-1.1c0-0.6,0.5-1.1,1.1-1.1h19.5c0.6,0,1.1,0.5,1.1,1.1C-126.5,462.8-127,463.3-127.6,463.3
	z M-116.5,457.9h-30.6c-0.6,0-1.1-0.5-1.1-1.1s0.5-1.1,1.1-1.1h30.6c0.6,0,1.1,0.5,1.1,1.1S-115.9,457.9-116.5,457.9z M-116.5,452.5
	h-30.6c-0.6,0-1.1-0.5-1.1-1.1c0-0.6,0.5-1.1,1.1-1.1h30.6c0.6,0,1.1,0.5,1.1,1.1C-115.5,452-115.9,452.5-116.5,452.5z M-89.7,422.5
	h-83.5c-2.3,0-4.2-1.9-4.2-4.2c0-0.8,0.2-1.5,0.6-2.2l15.2-25.1c1.2-1.9,3.2-3,5.4-3h91.6l-18.8,30.9
	C-84.7,421.1-87.1,422.5-89.7,422.5z M-156.2,390c-1.5,0-2.8,0.8-3.6,2l-15.2,25.1c-0.6,1-0.3,2.3,0.7,2.9c0.3,0.2,0.7,0.3,1.1,0.3
	h83.5c1.8,0,3.5-1,4.5-2.5l16.8-27.8L-156.2,390z M-18.8,422.5h-9.7c-0.6,0-1.1-0.5-1.1-1.1c0-0.6,0.5-1.1,1.1-1.1l0,0h9.7
	c1.2,0,2.1-1,2.1-2.1c0-0.4-0.1-0.7-0.3-1.1L-29.2,397c-0.4-0.5-0.3-1.1,0.2-1.5c0.5-0.4,1.1-0.3,1.5,0.2c0,0.1,0.1,0.1,0.1,0.2
	l12.2,20.2c1.2,2,0.6,4.6-1.4,5.8C-17.3,422.3-18,422.5-18.8,422.5z M-42.2,415.6h-14.1c-2.2,0-4-1.8-4-4v-1.4c0-2.2,1.8-4,4-4h14.1
	c2.2,0,4,1.8,4,4v1.4C-38.2,413.8-40,415.6-42.2,415.6C-42.2,415.6-42.2,415.6-42.2,415.6z M-56.3,408.3c-1,0-1.9,0.9-1.9,1.9v1.4
	c0,1,0.8,1.9,1.9,1.9c0,0,0,0,0,0h14.1c1,0,1.9-0.9,1.9-1.9v-1.4c0-1-0.8-1.9-1.9-1.9c0,0,0,0,0,0L-56.3,408.3z"/>
</svg>
