<?xml version="1.0" encoding="utf-8"?>
<!-- Generator: Adobe Illustrator 19.0.0, SVG Export Plug-In . SVG Version: 6.00 Build 0)  -->
<svg version="1.1" id="Layer_1" xmlns="http://www.w3.org/2000/svg" xmlns:xlink="http://www.w3.org/1999/xlink" x="0px" y="0px"
	 viewBox="-250.4 380.6 77 81.3" style="enable-background:new -250.4 380.6 77 81.3;" xml:space="preserve">
<style type="text/css">
	.st0{fill:#FFFFFF;}
</style>
<path class="st0" d="M-212,461.9c-0.2,0-0.4,0-0.6-0.1l-37.2-18.8c-0.4-0.2-0.6-0.6-0.6-1.1v-39.5c0-0.4,0.2-0.8,0.6-1
	c0.4-0.2,0.8-0.2,1.2-0.1l37.2,18.1c0.4,0.2,0.7,0.6,0.7,1.1v40.4c0,0.4-0.2,0.8-0.6,1.1L-212,461.9z M-248,441.1l34.8,17.6v-37.6
	l-34.8-16.9V441.1z"/>
<path class="st0" d="M-212,461.9c-0.2,0-0.5,0-0.6-0.1c-0.4-0.2-0.6-0.6-0.6-1.1v-40.2c0-0.5,0.2-0.8,0.7-1.1l37.2-18.1
	c0.4-0.2,0.8-0.1,1.2,0.1s0.6,0.6,0.6,1V442c0,0.5-0.2,0.8-0.6,1.1l-37.5,18.7C-211.6,461.9-211.9,461.9-212,461.9z M-210.8,421.2
	v37.6l34.8-17.6v-36.8L-210.8,421.2z"/>
<path class="st0" d="M-212,421.7c-0.2,0-0.4,0-0.5-0.1l-37.2-18.1c-0.5-0.2-0.7-0.6-0.7-1.1s0.2-0.8,0.6-1.1l37.2-20.4
	c0.4-0.2,0.8-0.2,1.2,0l37.1,20.4c0.4,0.2,0.6,0.6,0.6,1.1s-0.2,0.8-0.7,1.1l-37.2,18.1C-211.6,421.5-211.9,421.7-212,421.7z
	 M-246.6,402.2L-212,419l34.6-16.8l-34.6-19L-246.6,402.2z"/>
<path class="st0" d="M-225.3,423.2c-0.2,0-0.4,0-0.6-0.1l-10.6-5.6c-0.4-0.2-0.6-0.6-0.6-1.1v-7.7c0-0.4,0.2-0.8,0.6-1
	c0.4-0.2,0.8-0.2,1.2-0.1l10.5,5.2c0.4,0.2,0.7,0.6,0.7,1.1v8.1c0,0.4-0.2,0.8-0.6,1.1C-224.9,423.2-225.2,423.2-225.3,423.2z
	 M-234.7,415.9l8.1,4.2v-5.4l-8.1-4V415.9z"/>
<path class="st0" d="M-225.3,415.1c-0.1,0-0.4,0-0.5-0.1l-10.5-5.2c-0.4-0.2-0.6-0.6-0.7-1.1c0-0.5,0.2-0.8,0.6-1.1l35.5-20.3
	c0.4-0.2,0.8-0.2,1.2,0l9.4,5.2c0.4,0.2,0.6,0.6,0.6,1.1s-0.2,0.8-0.6,1.1l-34.4,20.3C-224.9,415.1-225.2,415.1-225.3,415.1z
	 M-233.4,408.7l8,3.9l32.1-19l-7-3.9L-233.4,408.7z"/>
<g>
	<path class="st0" d="M-206,438c-0.1-0.2,0-0.5,0.2-0.6c0.3-0.2,0.6-0.2,0.8,0.1c3.1,4,8.3,5.8,13.2,4.6c6.8-1.7,11-8.7,9.2-15.5
		c-1.2-4.6-4.8-8.2-9.4-9.3c-0.3-0.1-0.5-0.4-0.4-0.8c0.1-0.3,0.4-0.5,0.8-0.4c5,1.3,9,5.1,10.2,10.2c1.9,7.5-2.7,15.1-10.1,17
		c-5.4,1.4-11.1-0.6-14.5-5L-206,438z"/>
	<path class="st0" d="M-197.4,435l0-0.1c0-0.3,0.2-0.6,0.6-0.6c6-0.4,11.1-3.3,14.4-8.2c0.2-0.3,0.5-0.3,0.8-0.1
		c0.3,0.2,0.3,0.5,0.1,0.8c-3.5,5.2-9,8.3-15.4,8.8C-197,435.5-197.3,435.3-197.4,435z"/>
	<path class="st0" d="M-194.7,424.3c-0.1-0.3,0.1-0.7,0.5-0.7c4.3-0.7,8.6,0,12.5,2c0.3,0.2,0.4,0.5,0.3,0.8
		c-0.2,0.3-0.5,0.4-0.8,0.3c-3.7-1.9-7.8-2.6-11.8-1.9C-194.3,424.8-194.6,424.6-194.7,424.3z"/>
	<path class="st0" d="M-189.6,427.5c-0.8-3.3-0.8-6.8,0.1-10.1c0.1-0.3,0.4-0.5,0.8-0.4c0.3,0.1,0.5,0.4,0.4,0.8
		c-1.8,6.4,0.1,13.5,5.1,18.8c0.2,0.2,0.2,0.6,0,0.9c-0.2,0.2-0.6,0.2-0.9,0C-186.8,434.5-188.7,431-189.6,427.5z M-200.6,441.4
		c0-0.1,0-0.2,0-0.3c0.5-2,0.8-4.1,0.6-6.2c0-0.3,0.2-0.6,0.6-0.6c0.3,0,0.6,0.2,0.6,0.6c0.2,2.2,0,4.5-0.7,6.6
		c-0.1,0.3-0.4,0.5-0.8,0.4C-200.4,441.8-200.5,441.7-200.6,441.4z M-191.8,442.6l-3.5-14c-0.1-0.3,0.1-0.6,0.4-0.7
		c0.3-0.1,0.6,0.1,0.7,0.4l3.5,14c0.1,0.3-0.1,0.6-0.4,0.7C-191.4,443.1-191.7,443-191.8,442.6z"/>
</g>
</svg>
