<?xml version="1.0" encoding="utf-8"?>
<!-- Generator: Adobe Illustrator 19.0.0, SVG Export Plug-In . SVG Version: 6.00 Build 0)  -->
<svg version="1.1" id="Capa_1" xmlns="http://www.w3.org/2000/svg" xmlns:xlink="http://www.w3.org/1999/xlink" x="0px" y="0px"
	 viewBox="221.4 218.7 189.3 195.3" style="enable-background:new 221.4 218.7 189.3 195.3;" xml:space="preserve">
<style type="text/css">
	.st0{fill:#FFFFFF;}
</style>
<g>
	<path class="st0" d="M297.4,219c-41.6,0-75.3,33.7-75.3,75.3s33.7,75.3,75.3,75.3c16,0,30.8-5,43-13.5l56.9,56.9
		c0.5,0.5,1.3,0.5,1.8,0l10.7-10.7c0.5-0.5,0.5-1.3,0-1.8l-56.2-56.2c11.8-13.3,19-30.8,19-50C372.7,252.7,339,219,297.4,219z
		 M297.4,360.7c-36.7,0-66.4-29.7-66.4-66.4c0-36.7,29.7-66.4,66.4-66.4c36.7,0,66.4,29.7,66.4,66.4
		C363.8,331,334.1,360.7,297.4,360.7z"/>
</g>
</svg>
