<?xml version="1.0" encoding="utf-8"?>
<!-- Generator: Adobe Illustrator 19.0.0, SVG Export Plug-In . SVG Version: 6.00 Build 0)  -->
<svg version="1.1" id="Isolation_Mode" xmlns="http://www.w3.org/2000/svg" xmlns:xlink="http://www.w3.org/1999/xlink" x="0px"
	 y="0px" viewBox="-149 359.4 295.2 209.5" style="enable-background:new -149 359.4 295.2 209.5;" xml:space="preserve">
<style type="text/css">
	.st0{fill:#FFFFFF;}
</style>
<g>
	<path class="st0" d="M40.5,479.2l-5.2,8c15.8,10.2,25.2,27.4,25.2,46.1v26.1H1.4l34.7-59.5l-8.2-4.8l-29.2,50.1l-29.2-50.1
		l-8.2,4.8l34.7,59.5h-59.2v-26.1c0-18.7,9.4-35.9,25.2-46.1l-5.2-8c-18.5,11.9-29.6,32.2-29.6,54.1v35.6H70v-35.6
		C70,511.3,59,491.1,40.5,479.2z"/>
	<path class="st0" d="M-54.2,435.7c0,29,23.6,52.6,52.6,52.6s52.6-23.6,52.6-52.6c0-29-23.6-52.6-52.6-52.6S-54.2,406.8-54.2,435.7z
		 M41.4,435.7c0,23.7-19.3,43-43,43s-43-19.3-43-43c0-23.7,19.3-43,43-43S41.4,412,41.4,435.7z"/>
	<path class="st0" d="M-66,453.3c-3.9,1.1-7.9,1.7-11.9,1.7c-23.7,0-43-19.3-43-43c0-23.7,19.3-43,43-43c13,0,25.1,5.8,33.3,15.8
		l7.4-6c-10-12.3-24.9-19.3-40.7-19.3c-29,0-52.6,23.6-52.6,52.6c0,29,23.6,52.6,52.6,52.6c4.8,0,9.7-0.7,14.5-2.1L-66,453.3z"/>
	<path class="st0" d="M-139.5,509.5c0-18.7,9.4-35.9,25.2-46.1l-5.2-8c-18.5,11.9-29.6,32.2-29.6,54.1v35.6h61.9v-9.5h-52.4V509.5z"
		/>
	<path class="st0" d="M127.1,411.9c0-29-23.6-52.6-52.6-52.6c-15.8,0-30.7,7-40.7,19.3l7.4,6c8.2-10.1,20.4-15.8,33.3-15.8
		c23.7,0,43,19.3,43,43c0,23.7-19.3,43-43,43c-3.9,0-7.9-0.6-11.9-1.7l-2.6,9.2c4.8,1.4,9.7,2.1,14.5,2.1
		C103.5,464.5,127.1,440.9,127.1,411.9z"/>
	<path class="st0" d="M116.7,455.4l-5.2,8c15.8,10.2,25.2,27.4,25.2,46.1v26.1H89.1l0,0h-9.5v9.5h66.7v-35.6
		C146.2,487.5,135.2,467.3,116.7,455.4z"/>
</g>
</svg>
